<mxfile host="Electron" modified="2023-08-22T16:58:40.435Z" agent="Mozilla/5.0 (Macintosh; Intel Mac OS X 10_15_7) AppleWebKit/537.36 (KHTML, like Gecko) draw.io/21.6.8 Chrome/114.0.5735.289 Electron/25.5.0 Safari/537.36" etag="fnK7oAuFrDMv__FMtas2" version="21.6.8" type="device">
  <diagram name="Page-1" id="l_U9TE8VM8Wb_cqC_3wU">
    <mxGraphModel dx="1120" dy="832" grid="1" gridSize="10" guides="1" tooltips="1" connect="1" arrows="1" fold="1" page="1" pageScale="1" pageWidth="1169" pageHeight="827" math="0" shadow="0">
      <root>
        <mxCell id="0" />
        <mxCell id="1" parent="0" />
        <mxCell id="bcFj_FvfjHGWvFLV_pOK-6" value="" style="strokeWidth=1;outlineConnect=0;dashed=0;align=center;html=1;fontSize=8;shape=mxgraph.eip.messageChannel;verticalLabelPosition=bottom;labelBackgroundColor=#ffffff;verticalAlign=top;rotation=0;" parent="1" vertex="1">
          <mxGeometry x="470" y="379" width="120" height="20" as="geometry" />
        </mxCell>
        <mxCell id="bcFj_FvfjHGWvFLV_pOK-9" value="&lt;font style=&quot;font-size: 15px;&quot;&gt;&lt;b&gt;AMQP&lt;/b&gt;&lt;/font&gt;" style="text;html=1;strokeColor=none;fillColor=none;align=center;verticalAlign=middle;whiteSpace=wrap;rounded=0;" parent="1" vertex="1">
          <mxGeometry x="507.5" y="405" width="45" height="25" as="geometry" />
        </mxCell>
        <mxCell id="MKfOO1UCG0V61yar5A6D-1" value="" style="endArrow=classic;html=1;rounded=0;fillColor=#fff2cc;strokeColor=#d6b656;strokeWidth=2;" parent="1" edge="1">
          <mxGeometry width="50" height="50" relative="1" as="geometry">
            <mxPoint x="469.5" y="244" as="sourcePoint" />
            <mxPoint x="539.5" y="244" as="targetPoint" />
          </mxGeometry>
        </mxCell>
        <mxCell id="MKfOO1UCG0V61yar5A6D-2" value="&lt;font style=&quot;font-size: 15px;&quot;&gt;&lt;b&gt;AMQP&lt;/b&gt;&lt;/font&gt;" style="text;html=1;strokeColor=none;fillColor=none;align=center;verticalAlign=middle;whiteSpace=wrap;rounded=0;" parent="1" vertex="1">
          <mxGeometry x="545.5" y="230" width="45" height="25" as="geometry" />
        </mxCell>
        <mxCell id="MKfOO1UCG0V61yar5A6D-5" value="" style="endArrow=classic;html=1;rounded=0;strokeWidth=2;fillColor=#dae8fc;strokeColor=#6c8ebf;" parent="1" edge="1">
          <mxGeometry width="50" height="50" relative="1" as="geometry">
            <mxPoint x="469.5" y="270.5" as="sourcePoint" />
            <mxPoint x="539.5" y="270.5" as="targetPoint" />
          </mxGeometry>
        </mxCell>
        <mxCell id="MKfOO1UCG0V61yar5A6D-6" value="&lt;font style=&quot;font-size: 15px;&quot;&gt;&lt;b&gt;gRPC&lt;/b&gt;&lt;/font&gt;" style="text;html=1;strokeColor=none;fillColor=none;align=center;verticalAlign=middle;whiteSpace=wrap;rounded=0;" parent="1" vertex="1">
          <mxGeometry x="545.5" y="256.5" width="45" height="25" as="geometry" />
        </mxCell>
        <mxCell id="VCO2pFkmz6pVRNsTNrjf-7" value="" style="group" parent="1" vertex="1" connectable="0">
          <mxGeometry x="240" y="180" width="145" height="250" as="geometry" />
        </mxCell>
        <mxCell id="bcFj_FvfjHGWvFLV_pOK-15" value="" style="rounded=1;whiteSpace=wrap;html=1;dashed=1;dashPattern=12 12;" parent="VCO2pFkmz6pVRNsTNrjf-7" vertex="1">
          <mxGeometry width="145" height="250" as="geometry" />
        </mxCell>
        <mxCell id="VCO2pFkmz6pVRNsTNrjf-3" style="rounded=0;orthogonalLoop=1;jettySize=auto;html=1;entryX=0.5;entryY=0;entryDx=0;entryDy=0;fillColor=#dae8fc;strokeColor=#6c8ebf;strokeWidth=2;" parent="VCO2pFkmz6pVRNsTNrjf-7" edge="1">
          <mxGeometry relative="1" as="geometry">
            <mxPoint x="95" y="132" as="sourcePoint" />
            <mxPoint x="95" y="180" as="targetPoint" />
          </mxGeometry>
        </mxCell>
        <mxCell id="VCO2pFkmz6pVRNsTNrjf-4" value="Result" style="edgeLabel;html=1;align=center;verticalAlign=middle;resizable=0;points=[];" parent="VCO2pFkmz6pVRNsTNrjf-3" vertex="1" connectable="0">
          <mxGeometry x="-0.3131" y="-2" relative="1" as="geometry">
            <mxPoint as="offset" />
          </mxGeometry>
        </mxCell>
        <mxCell id="bcFj_FvfjHGWvFLV_pOK-16" value="Orchestrator" style="rounded=0;whiteSpace=wrap;html=1;" parent="VCO2pFkmz6pVRNsTNrjf-7" vertex="1">
          <mxGeometry x="10" y="71" width="120" height="60" as="geometry" />
        </mxCell>
        <mxCell id="VCO2pFkmz6pVRNsTNrjf-2" value="" style="sketch=0;html=1;dashed=0;whitespace=wrap;fillColor=#2875E2;strokeColor=#ffffff;points=[[0.005,0.63,0],[0.1,0.2,0],[0.9,0.2,0],[0.5,0,0],[0.995,0.63,0],[0.72,0.99,0],[0.5,1,0],[0.28,0.99,0]];verticalLabelPosition=bottom;align=center;verticalAlign=top;shape=mxgraph.kubernetes.icon;prIcon=pod" parent="VCO2pFkmz6pVRNsTNrjf-7" vertex="1">
          <mxGeometry x="5" y="10" width="50" height="48" as="geometry" />
        </mxCell>
        <mxCell id="AZBk5M4_pUrItTZdywSz-17" value="" style="endArrow=classic;html=1;rounded=0;exitX=0;exitY=0.5;exitDx=0;exitDy=0;entryX=1;entryY=0.5;entryDx=0;entryDy=0;strokeWidth=2;fillColor=#fff2cc;strokeColor=#d6b656;startArrow=classic;startFill=1;" edge="1" parent="VCO2pFkmz6pVRNsTNrjf-7" target="D8iI0oHs7c-IDb8tcbXQ-10">
          <mxGeometry relative="1" as="geometry">
            <mxPoint x="233" y="210" as="sourcePoint" />
            <mxPoint x="120" y="210" as="targetPoint" />
          </mxGeometry>
        </mxCell>
        <mxCell id="AZBk5M4_pUrItTZdywSz-18" value="" style="shape=message;html=1;outlineConnect=0;" vertex="1" parent="AZBk5M4_pUrItTZdywSz-17">
          <mxGeometry width="20" height="14" relative="1" as="geometry">
            <mxPoint x="-10" y="-7" as="offset" />
          </mxGeometry>
        </mxCell>
        <mxCell id="AZBk5M4_pUrItTZdywSz-16" value="" style="group" vertex="1" connectable="0" parent="1">
          <mxGeometry x="690" y="180" width="145" height="250" as="geometry" />
        </mxCell>
        <mxCell id="AZBk5M4_pUrItTZdywSz-7" value="" style="group" vertex="1" connectable="0" parent="AZBk5M4_pUrItTZdywSz-16">
          <mxGeometry width="145" height="250" as="geometry" />
        </mxCell>
        <mxCell id="AZBk5M4_pUrItTZdywSz-8" value="" style="rounded=1;whiteSpace=wrap;html=1;dashed=1;dashPattern=12 12;" vertex="1" parent="AZBk5M4_pUrItTZdywSz-7">
          <mxGeometry width="145" height="250" as="geometry" />
        </mxCell>
        <mxCell id="AZBk5M4_pUrItTZdywSz-9" style="rounded=0;orthogonalLoop=1;jettySize=auto;html=1;entryX=0.5;entryY=0;entryDx=0;entryDy=0;fillColor=#dae8fc;strokeColor=#6c8ebf;strokeWidth=2;" edge="1" parent="AZBk5M4_pUrItTZdywSz-7">
          <mxGeometry relative="1" as="geometry">
            <mxPoint x="95" y="132" as="sourcePoint" />
            <mxPoint x="95" y="180" as="targetPoint" />
          </mxGeometry>
        </mxCell>
        <mxCell id="AZBk5M4_pUrItTZdywSz-10" value="Result" style="edgeLabel;html=1;align=center;verticalAlign=middle;resizable=0;points=[];" vertex="1" connectable="0" parent="AZBk5M4_pUrItTZdywSz-9">
          <mxGeometry x="-0.3131" y="-2" relative="1" as="geometry">
            <mxPoint as="offset" />
          </mxGeometry>
        </mxCell>
        <mxCell id="AZBk5M4_pUrItTZdywSz-11" value="Policy enforcer" style="rounded=0;whiteSpace=wrap;html=1;" vertex="1" parent="AZBk5M4_pUrItTZdywSz-7">
          <mxGeometry x="10" y="71" width="120" height="60" as="geometry" />
        </mxCell>
        <mxCell id="AZBk5M4_pUrItTZdywSz-12" value="" style="sketch=0;html=1;dashed=0;whitespace=wrap;fillColor=#2875E2;strokeColor=#ffffff;points=[[0.005,0.63,0],[0.1,0.2,0],[0.9,0.2,0],[0.5,0,0],[0.995,0.63,0],[0.72,0.99,0],[0.5,1,0],[0.28,0.99,0]];verticalLabelPosition=bottom;align=center;verticalAlign=top;shape=mxgraph.kubernetes.icon;prIcon=pod" vertex="1" parent="AZBk5M4_pUrItTZdywSz-7">
          <mxGeometry x="5" y="10" width="50" height="48" as="geometry" />
        </mxCell>
        <mxCell id="AZBk5M4_pUrItTZdywSz-13" style="edgeStyle=orthogonalEdgeStyle;rounded=0;orthogonalLoop=1;jettySize=auto;html=1;fillColor=#dae8fc;strokeColor=#6c8ebf;strokeWidth=2;" edge="1" parent="AZBk5M4_pUrItTZdywSz-16" source="AZBk5M4_pUrItTZdywSz-15" target="AZBk5M4_pUrItTZdywSz-11">
          <mxGeometry relative="1" as="geometry">
            <Array as="points">
              <mxPoint x="45" y="170" />
              <mxPoint x="45" y="170" />
            </Array>
          </mxGeometry>
        </mxCell>
        <mxCell id="AZBk5M4_pUrItTZdywSz-14" value="Message" style="edgeLabel;html=1;align=center;verticalAlign=middle;resizable=0;points=[];fontSize=13;" vertex="1" connectable="0" parent="AZBk5M4_pUrItTZdywSz-13">
          <mxGeometry x="-0.2976" relative="1" as="geometry">
            <mxPoint x="-2" y="-7" as="offset" />
          </mxGeometry>
        </mxCell>
        <mxCell id="AZBk5M4_pUrItTZdywSz-15" value="Sidecar" style="rounded=0;whiteSpace=wrap;html=1;" vertex="1" parent="AZBk5M4_pUrItTZdywSz-16">
          <mxGeometry x="10" y="179" width="120" height="60" as="geometry" />
        </mxCell>
        <mxCell id="VCO2pFkmz6pVRNsTNrjf-39" value="" style="endArrow=classic;html=1;rounded=0;exitX=0;exitY=0.5;exitDx=0;exitDy=0;entryX=1;entryY=0.5;entryDx=-2.7;entryDy=0;strokeWidth=2;fillColor=#fff2cc;strokeColor=#d6b656;startArrow=classic;startFill=1;entryPerimeter=0;" parent="1" source="AZBk5M4_pUrItTZdywSz-15" target="bcFj_FvfjHGWvFLV_pOK-6" edge="1">
          <mxGeometry relative="1" as="geometry">
            <mxPoint x="857.5699999999999" y="635" as="sourcePoint" />
            <mxPoint x="689.9964068711927" y="707.7157287525383" as="targetPoint" />
          </mxGeometry>
        </mxCell>
        <mxCell id="VCO2pFkmz6pVRNsTNrjf-40" value="" style="shape=message;html=1;outlineConnect=0;" parent="VCO2pFkmz6pVRNsTNrjf-39" vertex="1">
          <mxGeometry width="20" height="14" relative="1" as="geometry">
            <mxPoint x="-10" y="-7" as="offset" />
          </mxGeometry>
        </mxCell>
        <mxCell id="D8iI0oHs7c-IDb8tcbXQ-2" value="messages" parent="0" visible="0" />
        <mxCell id="D8iI0oHs7c-IDb8tcbXQ-5" value="&lt;font style=&quot;font-size: 14px;&quot;&gt;AMQP&lt;br&gt;data request&lt;br&gt;&lt;/font&gt;" style="text;html=1;strokeColor=none;fillColor=none;align=center;verticalAlign=middle;whiteSpace=wrap;rounded=0;" parent="D8iI0oHs7c-IDb8tcbXQ-2" vertex="1">
          <mxGeometry x="390" y="425" width="45" height="25" as="geometry" />
        </mxCell>
        <mxCell id="D8iI0oHs7c-IDb8tcbXQ-8" value="&lt;font style=&quot;font-size: 14px;&quot;&gt;AMQP&lt;br&gt;Result&lt;br&gt;&lt;/font&gt;" style="text;html=1;strokeColor=none;fillColor=none;align=center;verticalAlign=middle;whiteSpace=wrap;rounded=0;" parent="D8iI0oHs7c-IDb8tcbXQ-2" vertex="1">
          <mxGeometry x="640" y="425" width="45" height="25" as="geometry" />
        </mxCell>
        <mxCell id="D8iI0oHs7c-IDb8tcbXQ-9" value="service3" parent="0" />
        <mxCell id="D8iI0oHs7c-IDb8tcbXQ-12" style="edgeStyle=orthogonalEdgeStyle;rounded=0;orthogonalLoop=1;jettySize=auto;html=1;fillColor=#dae8fc;strokeColor=#6c8ebf;strokeWidth=2;" parent="D8iI0oHs7c-IDb8tcbXQ-9" source="D8iI0oHs7c-IDb8tcbXQ-10" target="bcFj_FvfjHGWvFLV_pOK-16" edge="1">
          <mxGeometry relative="1" as="geometry">
            <Array as="points">
              <mxPoint x="285" y="350" />
              <mxPoint x="285" y="350" />
            </Array>
          </mxGeometry>
        </mxCell>
        <mxCell id="D8iI0oHs7c-IDb8tcbXQ-16" value="Message" style="edgeLabel;html=1;align=center;verticalAlign=middle;resizable=0;points=[];fontSize=13;" parent="D8iI0oHs7c-IDb8tcbXQ-12" vertex="1" connectable="0">
          <mxGeometry x="-0.2976" relative="1" as="geometry">
            <mxPoint x="-2" y="-7" as="offset" />
          </mxGeometry>
        </mxCell>
        <mxCell id="D8iI0oHs7c-IDb8tcbXQ-10" value="Sidecar" style="rounded=0;whiteSpace=wrap;html=1;" parent="D8iI0oHs7c-IDb8tcbXQ-9" vertex="1">
          <mxGeometry x="250" y="359" width="120" height="60" as="geometry" />
        </mxCell>
      </root>
    </mxGraphModel>
  </diagram>
</mxfile>
